<svg xmlns="http://www.w3.org/2000/svg" width="77" height="75" viewBox="0 0 77 75">
  <g id="Group_44" data-name="Group 44" transform="translate(-983 -750)">
    <g id="Group_40" data-name="Group 40" transform="translate(-150 18.328)">
      <rect id="Rectangle_34" data-name="Rectangle 34" width="77" height="75" rx="16" transform="translate(1133 731.672)" fill="#fdeb1d"/>
    </g>
    <g id="Group_42" data-name="Group 42" transform="translate(719 -1269)">
      <path id="Path_96" data-name="Path 96" d="M302.6,2034c-14.691,0-26.6,9.429-26.6,21.059,0,7.328,4.729,13.78,11.9,17.552a11.294,11.294,0,0,1-.324,1.29,15.53,15.53,0,0,1-2.463,4.434,34.554,34.554,0,0,1-3.2,3.941c-.061.167-.176.543,0,.739.206.23.7.086.985,0,1.42-.43,3.057-1.005,3.695-1.231a37.3,37.3,0,0,0,11.285-6,33.61,33.61,0,0,0,4.725.331c14.691,0,26.6-9.429,26.6-21.059S317.293,2034,302.6,2034Z" transform="translate(0 0)" fill="#332c2b" style="isolation: isolate"/>
      <path id="Path_97" data-name="Path 97" d="M301.9,2092.709h-2.709A1.451,1.451,0,0,1,298.7,2090h8.867a1.5,1.5,0,0,1,1.232,1.724,1.43,1.43,0,0,1-1.232.986h-2.709v9.606a1.5,1.5,0,0,1-2.956,0Z" transform="translate(-16.537 -42.207)" fill="#fdeb1d" style="isolation: isolate"/>
      <path id="Path_98" data-name="Path 98" d="M346.148,2101.33l-3.818-9.729a2.476,2.476,0,0,0-2.094-1.6,2.622,2.622,0,0,0-1.847,1.109,5.316,5.316,0,0,0-.985,1.97c-.552,1.583-.73,2.209-.985,2.956-.262.765-1.39,3.953-1.847,5.3a2.517,2.517,0,0,0-.123,1.108,1.431,1.431,0,0,0,.246.74,1.318,1.318,0,0,0,1.232.492,1.614,1.614,0,0,0,.985-.739,3.7,3.7,0,0,0,.739-1.971h5.419a3.131,3.131,0,0,0,.493,1.478c.121.185.809,1.235,1.6,1.108a1.025,1.025,0,0,0,.493-.246A2.163,2.163,0,0,0,346.148,2101.33Zm-7.512-3.078,1.724-5.173,1.97,5.173Z" transform="translate(-44.04 -42.207)" fill="#fdeb1d" style="isolation: isolate"/>
      <path id="Path_99" data-name="Path 99" d="M386.9,2091.58c-.045,5.958-.039,10.309,0,11.084a1.291,1.291,0,0,0,.246.739,1.477,1.477,0,0,0,.985.493H393.8a1.559,1.559,0,0,0,.985-1.232,1.5,1.5,0,0,0-.246-.985,1.532,1.532,0,0,0-.862-.616h-3.941v-9.606a1.56,1.56,0,0,0-1.232-.985,1.5,1.5,0,0,0-.985.246,2.184,2.184,0,0,0-.246.246A2.207,2.207,0,0,0,386.9,2091.58Z" transform="translate(-83.563 -42.555)" fill="#fdeb1d" style="isolation: isolate"/>
      <path id="Path_100" data-name="Path 100" d="M422,2091.464c.005.658,0,4.944,0,10.837a1.376,1.376,0,0,0,.739,1.231,1.453,1.453,0,0,0,1.355-.123,1.684,1.684,0,0,0,.739-.985v-3.2l.985-.985,3.941,5.172a1.707,1.707,0,0,0,1.478.247,1.517,1.517,0,0,0,.985-.985,1.5,1.5,0,0,0-.246-1.232l-3.941-5.172,3.695-3.941a1.6,1.6,0,0,0,.246-1.478,1.439,1.439,0,0,0-.739-.739,1.568,1.568,0,0,0-1.232,0l-5.172,4.927v-3.695a2.06,2.06,0,0,0-1.232-1.232,1.235,1.235,0,0,0-.739,0,1.323,1.323,0,0,0-.739.739A1.516,1.516,0,0,0,422,2091.464Z" transform="translate(-110.039 -42.193)" fill="#fdeb1d" style="isolation: isolate"/>
    </g>
  </g>
</svg>
