<svg id="Group_42" data-name="Group 42" xmlns="http://www.w3.org/2000/svg" width="25.813" height="23.842" viewBox="0 0 25.813 23.842">
  <path id="Path_96" data-name="Path 96" d="M288.907,2034c-7.128,0-12.907,4.575-12.907,10.218,0,3.555,2.294,6.686,5.774,8.516a5.461,5.461,0,0,1-.157.625,7.519,7.519,0,0,1-1.2,2.152,16.741,16.741,0,0,1-1.554,1.912c-.03.081-.086.264,0,.358.1.112.339.042.478,0,.689-.208,1.483-.488,1.793-.6a18.11,18.11,0,0,0,5.475-2.909,16.374,16.374,0,0,0,2.293.16c7.128,0,12.907-4.574,12.907-10.217S296.035,2034,288.907,2034Z" transform="translate(-276 -2034)" fill="#332c2b" style="isolation: isolate"/>
  <path id="Path_97" data-name="Path 97" d="M299.861,2091.315h-1.315a.7.7,0,0,1-.239-1.315h4.3a.726.726,0,0,1,.6.836.694.694,0,0,1-.6.478h-1.315v4.661a.729.729,0,0,1-1.434,0Z" transform="translate(-295.32 -2083.308)" fill="#fdeb1d" style="isolation: isolate"/>
  <path id="Path_98" data-name="Path 98" d="M340.116,2095.5l-1.852-4.72a1.2,1.2,0,0,0-1.016-.777,1.273,1.273,0,0,0-.9.538,2.583,2.583,0,0,0-.478.956c-.268.768-.354,1.072-.478,1.434s-.674,1.918-.9,2.569a1.22,1.22,0,0,0-.06.538.7.7,0,0,0,.119.359.639.639,0,0,0,.6.239.784.784,0,0,0,.478-.358,1.8,1.8,0,0,0,.359-.956h2.629a1.519,1.519,0,0,0,.239.717c.059.09.392.6.777.538a.5.5,0,0,0,.239-.12A1.049,1.049,0,0,0,340.116,2095.5ZM336.472,2094l.836-2.51.956,2.51Z" transform="translate(-327.449 -2083.308)" fill="#fdeb1d" style="isolation: isolate"/>
  <path id="Path_99" data-name="Path 99" d="M386.887,2091c-.022,2.891-.019,5,0,5.378a.627.627,0,0,0,.119.359.714.714,0,0,0,.478.239h2.749a.756.756,0,0,0,.478-.6.728.728,0,0,0-.12-.478.745.745,0,0,0-.418-.3h-1.912v-4.661a.758.758,0,0,0-.6-.479.728.728,0,0,0-.478.12,1.045,1.045,0,0,0-.3.418Z" transform="translate(-373.622 -2083.714)" fill="#fdeb1d" style="isolation: isolate"/>
  <path id="Path_100" data-name="Path 100" d="M422,2090.7c0,.319,0,2.4,0,5.258a.668.668,0,0,0,.358.6.7.7,0,0,0,.657-.059.817.817,0,0,0,.358-.478v-1.554l.478-.478,1.912,2.51a.83.83,0,0,0,.717.12.737.737,0,0,0,.478-.478.728.728,0,0,0-.12-.6l-1.912-2.51,1.793-1.912a.777.777,0,0,0,.12-.717.7.7,0,0,0-.358-.359.76.76,0,0,0-.6,0l-2.51,2.39v-1.793a1,1,0,0,0-.6-.6.592.592,0,0,0-.358,0,.641.641,0,0,0-.359.359A.733.733,0,0,0,422,2090.7Z" transform="translate(-404.552 -2083.292)" fill="#fdeb1d" style="isolation: isolate"/>
</svg>
